<svg width="25" height="24" viewBox="0 0 25 24" fill="none" xmlns="http://www.w3.org/2000/svg">
<path fill-rule="evenodd" clip-rule="evenodd" d="M8.79289 10.2929C9.18342 9.90237 9.81658 9.90237 10.2071 10.2929L12.5 12.5858L14.7929 10.2929C15.1834 9.90237 15.8166 9.90237 16.2071 10.2929C16.5976 10.6834 16.5976 11.3166 16.2071 11.7071L13.2071 14.7071C12.8166 15.0976 12.1834 15.0976 11.7929 14.7071L8.79289 11.7071C8.40237 11.3166 8.40237 10.6834 8.79289 10.2929Z" fill="#404E71"/>
<path fill-rule="evenodd" clip-rule="evenodd" d="M10.8572 3H14.1428C15.2266 2.99999 16.1007 2.99998 16.8086 3.05782C17.5375 3.11737 18.1777 3.24318 18.77 3.54497C19.7108 4.02433 20.4757 4.78924 20.955 5.73005C21.2568 6.32234 21.3826 6.96253 21.4422 7.69138C21.5 8.39925 21.5 9.27339 21.5 10.3572V13.6428C21.5 14.7266 21.5 15.6008 21.4422 16.3086C21.3826 17.0375 21.2568 17.6777 20.955 18.27C20.4757 19.2108 19.7108 19.9757 18.77 20.455C18.1777 20.7568 17.5375 20.8826 16.8086 20.9422C16.1008 21 15.2266 21 14.1428 21H10.8572C9.77339 21 8.89925 21 8.19138 20.9422C7.46253 20.8826 6.82234 20.7568 6.23005 20.455C5.28924 19.9757 4.52433 19.2108 4.04497 18.27C3.74318 17.6777 3.61737 17.0375 3.55782 16.3086C3.49998 15.6007 3.49999 14.7266 3.5 13.6428V10.3572C3.49999 9.27341 3.49998 8.39926 3.55782 7.69138C3.61737 6.96253 3.74318 6.32234 4.04497 5.73005C4.52433 4.78924 5.28924 4.02433 6.23005 3.54497C6.82234 3.24318 7.46253 3.11737 8.19138 3.05782C8.89926 2.99998 9.77341 2.99999 10.8572 3ZM8.35424 5.05118C7.74907 5.10062 7.40138 5.19279 7.13803 5.32698C6.57354 5.6146 6.1146 6.07354 5.82698 6.63803C5.69279 6.90138 5.60062 7.24907 5.55118 7.85424C5.50078 8.47108 5.5 9.26339 5.5 10.4V13.6C5.5 14.7366 5.50078 15.5289 5.55118 16.1458C5.60062 16.7509 5.69279 17.0986 5.82698 17.362C6.1146 17.9265 6.57354 18.3854 7.13803 18.673C7.40138 18.8072 7.74907 18.8994 8.35424 18.9488C8.97108 18.9992 9.76339 19 10.9 19H14.1C15.2366 19 16.0289 18.9992 16.6458 18.9488C17.2509 18.8994 17.5986 18.8072 17.862 18.673C18.4265 18.3854 18.8854 17.9265 19.173 17.362C19.3072 17.0986 19.3994 16.7509 19.4488 16.1458C19.4992 15.5289 19.5 14.7366 19.5 13.6V10.4C19.5 9.26339 19.4992 8.47108 19.4488 7.85424C19.3994 7.24907 19.3072 6.90138 19.173 6.63803C18.8854 6.07354 18.4265 5.6146 17.862 5.32698C17.5986 5.19279 17.2509 5.10062 16.6458 5.05118C16.0289 5.00078 15.2366 5 14.1 5H10.9C9.76339 5 8.97108 5.00078 8.35424 5.05118Z" fill="#404E71"/>
</svg>
