<svg width="16" height="16" viewBox="0 0 16 16" fill="none" xmlns="http://www.w3.org/2000/svg">
<path fill-rule="evenodd" clip-rule="evenodd" d="M1.33325 8C1.33325 4.3181 4.31802 1.33333 7.99992 1.33333C11.6818 1.33333 14.6666 4.3181 14.6666 8C14.6666 11.6819 11.6818 14.6667 7.99992 14.6667C4.31802 14.6667 1.33325 11.6819 1.33325 8ZM7.80466 5.5286C7.54431 5.26825 7.1222 5.26825 6.86185 5.5286C6.6015 5.78895 6.6015 6.21106 6.86185 6.47141L8.39044 8L6.86185 9.5286C6.6015 9.78895 6.6015 10.2111 6.86185 10.4714C7.1222 10.7318 7.54431 10.7318 7.80466 10.4714L9.80466 8.47141C10.065 8.21106 10.065 7.78895 9.80466 7.5286L7.80466 5.5286Z" fill="#404E71"/>
</svg>
