<svg width="20" height="20" viewBox="0 0 20 20" fill="none" xmlns="http://www.w3.org/2000/svg">
<path fill-rule="evenodd" clip-rule="evenodd" d="M1.66666 9.99996C1.66666 5.39759 5.39762 1.66663 9.99999 1.66663C14.6024 1.66663 18.3333 5.39759 18.3333 9.99996C18.3333 14.6023 14.6024 18.3333 9.99999 18.3333C5.39762 18.3333 1.66666 14.6023 1.66666 9.99996ZM9.16666 6.66663C9.16666 6.20639 9.53975 5.83329 9.99999 5.83329C10.4602 5.83329 10.8333 6.20639 10.8333 6.66663C10.8333 7.12686 10.4602 7.49996 9.99999 7.49996C9.53975 7.49996 9.16666 7.12686 9.16666 6.66663ZM9.99999 9.16663C10.4602 9.16663 10.8333 9.53972 10.8333 9.99996V13.3333C10.8333 13.7935 10.4602 14.1666 9.99999 14.1666C9.53975 14.1666 9.16666 13.7935 9.16666 13.3333V9.99996C9.16666 9.53972 9.53975 9.16663 9.99999 9.16663Z" fill="#3756E4"/>
</svg>
