<svg width="40" height="40" viewBox="0 0 40 40" fill="none" xmlns="http://www.w3.org/2000/svg">
<path fill-rule="evenodd" clip-rule="evenodd" d="M21.1785 27.1548C20.5276 26.5039 19.4723 26.5039 18.8214 27.1548C18.1706 27.8057 18.1706 28.861 18.8214 29.5118L23.8214 34.5118C24.4723 35.1627 25.5276 35.1627 26.1785 34.5118L31.1785 29.5118C31.8293 28.861 31.8293 27.8057 31.1785 27.1548C30.5276 26.5039 29.4723 26.5039 28.8214 27.1548L26.6666 29.3096L26.6666 16.6667C26.6666 15.7462 25.9204 15 25 15C24.0795 15 23.3333 15.7462 23.3333 16.6667L23.3333 29.3096L21.1785 27.1548ZM18.8214 12.8452C19.4723 13.4961 20.5276 13.4961 21.1785 12.8452C21.8293 12.1943 21.8293 11.139 21.1785 10.4882L16.1785 5.48815C15.5276 4.83728 14.4723 4.83728 13.8214 5.48815L8.82145 10.4882C8.17057 11.139 8.17057 12.1943 8.82145 12.8452C9.47232 13.4961 10.5276 13.4961 11.1785 12.8452L13.3333 10.6904L13.3333 23.3333C13.3333 24.2538 14.0795 25 15 25C15.9204 25 16.6666 24.2538 16.6666 23.3333L16.6666 10.6904L18.8214 12.8452Z" fill="#404E71"/>
</svg>
