<svg width="168" height="40" viewBox="0 0 168 40" fill="none" xmlns="http://www.w3.org/2000/svg">
<path d="M7.76764 22.7527C7.76764 20.8854 8.10032 19.2542 8.76569 17.859C9.45252 16.4639 10.3754 15.3907 11.5345 14.6395C12.715 13.8883 14.0242 13.5127 15.4623 13.5127C16.7072 13.5127 17.7803 13.7595 18.6818 14.2532C19.5833 14.7468 20.2808 15.4122 20.7745 16.2493V13.7381H27.0847V31.7995H20.7745V29.2883C20.2808 30.1254 19.5725 30.7907 18.6496 31.2844C17.7481 31.7781 16.6857 32.0249 15.4623 32.0249C14.0242 32.0249 12.715 31.6493 11.5345 30.8981C10.3754 30.1468 9.45252 29.0737 8.76569 27.6785C8.10032 26.262 7.76764 24.62 7.76764 22.7527ZM20.7745 22.7527C20.7745 21.5937 20.4525 20.6815 19.8086 20.0161C19.1862 19.3507 18.4135 19.0181 17.4906 19.0181C16.5462 19.0181 15.7628 19.3507 15.1403 20.0161C14.5179 20.66 14.2067 21.5722 14.2067 22.7527C14.2067 23.9117 14.5179 24.8346 15.1403 25.5215C15.7628 26.1868 16.5462 26.5195 17.4906 26.5195C18.4135 26.5195 19.1862 26.1868 19.8086 25.5215C20.4525 24.8561 20.7745 23.9332 20.7745 22.7527Z" fill="black"/>
<path d="M36.9907 7.97513V31.7995H30.6805V7.97513H36.9907Z" fill="black"/>
<path d="M48.9872 32.0249C47.1843 32.0249 45.5638 31.6493 44.1257 30.8981C42.7092 30.1468 41.5931 29.0737 40.7775 27.6785C39.9618 26.2834 39.554 24.6415 39.554 22.7527C39.554 20.8854 39.9618 19.2542 40.7775 17.859C41.6145 16.4639 42.7414 15.3907 44.1579 14.6395C45.596 13.8883 47.2165 13.5127 49.0194 13.5127C50.8223 13.5127 52.4321 13.8883 53.8487 14.6395C55.2867 15.3907 56.4135 16.4639 57.2292 17.859C58.0662 19.2542 58.4848 20.8854 58.4848 22.7527C58.4848 24.62 58.0662 26.262 57.2292 27.6785C56.4135 29.0737 55.2867 30.1468 53.8487 30.8981C52.4106 31.6493 50.7901 32.0249 48.9872 32.0249ZM48.9872 26.5517C49.8672 26.5517 50.597 26.2298 51.1765 25.5859C51.7775 24.9205 52.0779 23.9761 52.0779 22.7527C52.0779 21.5293 51.7775 20.5956 51.1765 19.9517C50.597 19.3078 49.8779 18.9859 49.0194 18.9859C48.1609 18.9859 47.4418 19.3078 46.8623 19.9517C46.2828 20.5956 45.9931 21.5293 45.9931 22.7527C45.9931 23.9976 46.2721 24.942 46.8301 25.5859C47.3882 26.2298 48.1072 26.5517 48.9872 26.5517Z" fill="black"/>
<path d="M60.0218 22.7527C60.0218 20.8854 60.4082 19.2542 61.1809 17.859C61.9535 16.4639 63.0267 15.3907 64.4004 14.6395C65.7955 13.8883 67.3838 13.5127 69.1652 13.5127C71.4618 13.5127 73.3935 14.1459 74.9604 15.4122C76.5272 16.6571 77.536 18.4063 77.9867 20.66H71.2901C70.9038 19.4795 70.1526 18.8893 69.0365 18.8893C68.2423 18.8893 67.6091 19.222 67.137 19.8873C66.6862 20.5312 66.4609 21.4864 66.4609 22.7527C66.4609 24.019 66.6862 24.9849 67.137 25.6502C67.6091 26.3156 68.2423 26.6483 69.0365 26.6483C70.174 26.6483 70.9253 26.0581 71.2901 24.8776H77.9867C77.536 27.1098 76.5272 28.859 74.9604 30.1254C73.3935 31.3917 71.4618 32.0249 69.1652 32.0249C67.3838 32.0249 65.7955 31.6493 64.4004 30.8981C63.0267 30.1468 61.9535 29.0737 61.1809 27.6785C60.4082 26.2834 60.0218 24.6415 60.0218 22.7527Z" fill="black"/>
<path d="M79.5779 22.7527C79.5779 20.8854 79.9105 19.2542 80.5759 17.859C81.2627 16.4639 82.1857 15.3907 83.3447 14.6395C84.5252 13.8883 85.8344 13.5127 87.2725 13.5127C88.5174 13.5127 89.5905 13.7595 90.492 14.2532C91.3935 14.7468 92.091 15.4122 92.5847 16.2493V13.7381H98.8949V31.7995H92.5847V29.2883C92.091 30.1254 91.3827 30.7907 90.4598 31.2844C89.5583 31.7781 88.4959 32.0249 87.2725 32.0249C85.8344 32.0249 84.5252 31.6493 83.3447 30.8981C82.1857 30.1468 81.2627 29.0737 80.5759 27.6785C79.9105 26.262 79.5779 24.62 79.5779 22.7527ZM92.5847 22.7527C92.5847 21.5937 92.2627 20.6815 91.6188 20.0161C90.9964 19.3507 90.2237 19.0181 89.3008 19.0181C88.3564 19.0181 87.573 19.3507 86.9505 20.0161C86.3281 20.66 86.0169 21.5722 86.0169 22.7527C86.0169 23.9117 86.3281 24.8346 86.9505 25.5215C87.573 26.1868 88.3564 26.5195 89.3008 26.5195C90.2237 26.5195 90.9964 26.1868 91.6188 25.5215C92.2627 24.8561 92.5847 23.9332 92.5847 22.7527Z" fill="black"/>
<path d="M101.46 22.7527C101.46 20.8854 101.793 19.2542 102.459 17.859C103.145 16.4639 104.079 15.3907 105.259 14.6395C106.44 13.8883 107.749 13.5127 109.187 13.5127C110.346 13.5127 111.377 13.7595 112.278 14.2532C113.201 14.7254 113.92 15.38 114.435 16.2171V7.97513H120.778V31.7995H114.435V29.2883C113.941 30.1254 113.244 30.7907 112.342 31.2844C111.441 31.7781 110.379 32.0249 109.155 32.0249C107.717 32.0249 106.408 31.6493 105.227 30.8981C104.068 30.1468 103.145 29.0737 102.459 27.6785C101.793 26.262 101.46 24.62 101.46 22.7527ZM114.467 22.7527C114.467 21.5937 114.145 20.6815 113.501 20.0161C112.879 19.3507 112.106 19.0181 111.183 19.0181C110.239 19.0181 109.456 19.3507 108.833 20.0161C108.211 20.66 107.899 21.5722 107.899 22.7527C107.899 23.9117 108.211 24.8346 108.833 25.5215C109.456 26.1868 110.239 26.5195 111.183 26.5195C112.106 26.5195 112.879 26.1868 113.501 25.5215C114.145 24.8561 114.467 23.9332 114.467 22.7527Z" fill="black"/>
<path d="M132.776 32.0249C130.973 32.0249 129.353 31.6493 127.915 30.8981C126.498 30.1468 125.382 29.0737 124.567 27.6785C123.751 26.2834 123.343 24.6415 123.343 22.7527C123.343 20.8854 123.751 19.2542 124.567 17.859C125.404 16.4639 126.53 15.3907 127.947 14.6395C129.385 13.8883 131.006 13.5127 132.808 13.5127C134.611 13.5127 136.221 13.8883 137.638 14.6395C139.076 15.3907 140.203 16.4639 141.018 17.859C141.855 19.2542 142.274 20.8854 142.274 22.7527C142.274 24.62 141.855 26.262 141.018 27.6785C140.203 29.0737 139.076 30.1468 137.638 30.8981C136.2 31.6493 134.579 32.0249 132.776 32.0249ZM132.776 26.5517C133.656 26.5517 134.386 26.2298 134.966 25.5859C135.567 24.9205 135.867 23.9761 135.867 22.7527C135.867 21.5293 135.567 20.5956 134.966 19.9517C134.386 19.3078 133.667 18.9859 132.808 18.9859C131.95 18.9859 131.231 19.3078 130.651 19.9517C130.072 20.5956 129.782 21.5293 129.782 22.7527C129.782 23.9976 130.061 24.942 130.619 25.5859C131.177 26.2298 131.896 26.5517 132.776 26.5517Z" fill="black"/>
<path d="M152.536 32.0249C150.905 32.0249 149.445 31.7566 148.157 31.22C146.891 30.662 145.882 29.9107 145.131 28.9664C144.401 28.0005 143.993 26.9166 143.907 25.7146H150.025C150.11 26.2942 150.379 26.7449 150.829 27.0668C151.28 27.3888 151.838 27.5498 152.504 27.5498C153.019 27.5498 153.426 27.4424 153.727 27.2278C154.027 27.0132 154.178 26.7342 154.178 26.3907C154.178 25.94 153.931 25.6073 153.437 25.3927C152.944 25.1781 152.128 24.942 150.99 24.6844C149.703 24.4268 148.629 24.1371 147.771 23.8151C146.912 23.4932 146.161 22.9673 145.517 22.2376C144.895 21.5078 144.584 20.5205 144.584 19.2756C144.584 18.2024 144.873 17.2366 145.453 16.3781C146.032 15.4981 146.88 14.8005 147.996 14.2854C149.134 13.7702 150.497 13.5127 152.085 13.5127C154.446 13.5127 156.303 14.0922 157.655 15.2512C159.007 16.4103 159.79 17.9342 160.005 19.8229H154.307C154.199 19.2434 153.942 18.8034 153.534 18.5029C153.147 18.181 152.622 18.02 151.956 18.02C151.441 18.02 151.044 18.1166 150.765 18.3098C150.507 18.5029 150.379 18.7712 150.379 19.1146C150.379 19.5439 150.626 19.8766 151.119 20.1127C151.613 20.3273 152.407 20.5527 153.502 20.7888C154.811 21.0678 155.895 21.379 156.753 21.7224C157.633 22.0659 158.395 22.6239 159.039 23.3966C159.705 24.1478 160.037 25.1781 160.037 26.4873C160.037 27.539 159.726 28.4834 159.104 29.3205C158.503 30.1576 157.633 30.8229 156.496 31.3166C155.38 31.7888 154.06 32.0249 152.536 32.0249Z" fill="black"/>
</svg>
