<svg width="24" height="22" viewBox="0 0 24 22" fill="none" xmlns="http://www.w3.org/2000/svg">
<path d="M23.8764 17.0313L19.9145 21.1706C19.8284 21.2606 19.7241 21.3322 19.6083 21.3812C19.4925 21.4302 19.3676 21.4555 19.2414 21.4554H0.459951C0.370334 21.4554 0.28267 21.4299 0.207731 21.3821C0.132791 21.3342 0.0738392 21.266 0.0381186 21.1859C0.00239817 21.1059 -0.00853499 21.0174 0.00666254 20.9314C0.02186 20.8453 0.0625261 20.7655 0.123665 20.7016L4.08858 16.5623C4.17448 16.4726 4.27834 16.4011 4.39376 16.3521C4.50919 16.3031 4.63371 16.2777 4.75962 16.2775H23.54C23.6296 16.2775 23.7173 16.303 23.7923 16.3509C23.8672 16.3988 23.9261 16.4669 23.962 16.547C23.9976 16.6271 24.0085 16.7155 23.9933 16.8016C23.9781 16.8876 23.9375 16.9675 23.8764 17.0313ZM19.9145 8.6958C19.8284 8.60589 19.7241 8.5342 19.6083 8.4852C19.4925 8.43622 19.3676 8.41096 19.2414 8.41104H0.459951C0.370334 8.41104 0.28267 8.43653 0.207731 8.48441C0.132791 8.5323 0.0738392 8.60045 0.0381186 8.6805C0.00239817 8.76058 -0.00853499 8.84907 0.00666254 8.93511C0.02186 9.02113 0.0625261 9.10098 0.123665 9.16483L4.08858 13.3042C4.17448 13.3939 4.27834 13.4654 4.39376 13.5144C4.50919 13.5634 4.63371 13.5888 4.75962 13.5889H23.54C23.6296 13.5889 23.7173 13.5635 23.7923 13.5156C23.8672 13.4677 23.9261 13.3995 23.962 13.3195C23.9976 13.2394 24.0085 13.1509 23.9933 13.0649C23.9781 12.9789 23.9375 12.899 23.8764 12.8352L19.9145 8.6958ZM0.459951 5.72249H19.2414C19.3676 5.72254 19.4925 5.6973 19.6083 5.64831C19.7241 5.59931 19.8284 5.52762 19.9145 5.4377L23.8764 1.29834C23.9375 1.23451 23.9781 1.15467 23.9933 1.06863C24.0085 0.982596 23.9976 0.894107 23.962 0.81404C23.9261 0.733973 23.8672 0.665814 23.7923 0.617939C23.7173 0.570064 23.6296 0.544559 23.54 0.544556H4.75962C4.63371 0.544764 4.50919 0.570147 4.39376 0.619133C4.27834 0.668119 4.17448 0.739665 4.08858 0.829343L0.124687 4.9687C0.0636073 5.03246 0.0229591 5.11223 0.00772716 5.19815C-0.00750484 5.2841 0.00334156 5.37252 0.038936 5.45255C0.0745306 5.53258 0.133326 5.60073 0.208112 5.64869C0.282898 5.69664 0.370422 5.72228 0.459951 5.72249Z" fill="url(#paint0_linear_504_58)"/>
<defs>
<linearGradient id="paint0_linear_504_58" x1="2.02588" y1="21.9538" x2="21.1469" y2="-0.172172" gradientUnits="userSpaceOnUse">
<stop offset="0.08" stop-color="#9945FF"/>
<stop offset="0.3" stop-color="#8752F3"/>
<stop offset="0.5" stop-color="#5497D5"/>
<stop offset="0.6" stop-color="#43B4CA"/>
<stop offset="0.72" stop-color="#28E0B9"/>
<stop offset="0.97" stop-color="#19FB9B"/>
</linearGradient>
</defs>
</svg>
